<mxfile host="app.diagrams.net" agent="Mozilla/5.0 (Windows NT 10.0; Win64; x64) AppleWebKit/537.36 (KHTML, like Gecko) Chrome/131.0.0.0 Safari/537.36 OPR/116.0.0.0" version="26.0.16">
  <diagram name="PÃ¡gina-1" id="lUQjg1Ge4whBRbPZ7dn8">
    <mxGraphModel dx="1160" dy="628" grid="1" gridSize="10" guides="1" tooltips="1" connect="1" arrows="1" fold="1" page="1" pageScale="1" pageWidth="827" pageHeight="1169" math="0" shadow="0">
      <root>
        <mxCell id="0" />
        <mxCell id="1" parent="0" />
        <mxCell id="qlU_Dw-U-t3R4mqxL_1K-5" style="edgeStyle=orthogonalEdgeStyle;rounded=0;orthogonalLoop=1;jettySize=auto;html=1;" edge="1" parent="1" source="qlU_Dw-U-t3R4mqxL_1K-1">
          <mxGeometry relative="1" as="geometry">
            <mxPoint x="405" y="262" as="targetPoint" />
          </mxGeometry>
        </mxCell>
        <mxCell id="qlU_Dw-U-t3R4mqxL_1K-1" value="" style="shape=cube;whiteSpace=wrap;html=1;boundedLbl=1;backgroundOutline=1;darkOpacity=0.05;darkOpacity2=0.1;fillColor=#0050ef;fontColor=#ffffff;strokeColor=#001DBC;" vertex="1" parent="1">
          <mxGeometry x="310" y="412" width="190" height="80" as="geometry" />
        </mxCell>
        <mxCell id="qlU_Dw-U-t3R4mqxL_1K-4" value="" style="shape=image;verticalLabelPosition=bottom;labelBackgroundColor=default;verticalAlign=top;aspect=fixed;imageAspect=0;image=https://www.simplereport.gov/assets/img/SimpleReportLogo.svg;" vertex="1" parent="1">
          <mxGeometry x="335.5" y="445" width="156.09" height="30" as="geometry" />
        </mxCell>
        <mxCell id="qlU_Dw-U-t3R4mqxL_1K-6" value="&lt;font style=&quot;font-size: 16px; line-height: 160%;&quot;&gt;Ben Warfiled&lt;/font&gt;&lt;div&gt;&lt;font style=&quot;font-size: 16px; line-height: 160%;&quot;&gt;Maya Benari&lt;/font&gt;&lt;/div&gt;&lt;div&gt;&lt;font style=&quot;font-size: 16px; line-height: 160%;&quot;&gt;Tim Best&lt;/font&gt;&lt;/div&gt;&lt;div&gt;&lt;font style=&quot;font-size: 16px; line-height: 160%;&quot;&gt;Zedd Shmais&lt;/font&gt;&lt;/div&gt;&lt;div&gt;&lt;font style=&quot;font-size: 16px; line-height: 160%;&quot;&gt;Emma Stepherson&lt;/font&gt;&lt;/div&gt;&lt;div&gt;&lt;font style=&quot;font-size: 16px; line-height: 160%;&quot;&gt;Elisa Lee&lt;/font&gt;&lt;/div&gt;" style="verticalLabelPosition=middle;verticalAlign=middle;html=1;shape=mxgraph.basic.polygon;polyCoords=[[0.25,0],[0.75,0],[1,0.25],[1,0.75],[0.75,1],[0.25,1],[0,0.75],[0,0.25]];polyline=0;labelPosition=center;align=center;" vertex="1" parent="1">
          <mxGeometry x="310" y="72" width="180" height="190" as="geometry" />
        </mxCell>
      </root>
    </mxGraphModel>
  </diagram>
</mxfile>
